<svg width="16" height="20" viewBox="0 0 16 20" fill="none" xmlns="http://www.w3.org/2000/svg">
<path fill-rule="evenodd" clip-rule="evenodd" d="M10.044 0.923605C10.3905 1.09957 10.5694 1.4917 10.4751 1.86875L9.06732 7.49997H14.6667C14.9971 7.49997 15.2964 7.69525 15.4295 7.99775C15.5625 8.30024 15.5043 8.65279 15.281 8.8964L6.11431 18.8964C5.84466 19.1906 5.40431 19.2523 5.06418 19.0436C4.72405 18.8349 4.57962 18.4143 4.71974 18.0407L6.79751 12.5H1.33334C1.01 12.5 0.715835 12.3129 0.578686 12.0201C0.441536 11.7273 0.486157 11.3815 0.693159 11.1331L9.02649 1.13315C9.2753 0.83458 9.69745 0.747642 10.044 0.923605ZM3.11255 10.8333H8.00001C8.27333 10.8333 8.52927 10.9673 8.68495 11.192C8.84063 11.4166 8.87625 11.7033 8.78029 11.9592L7.7888 14.6032L12.7723 9.16663H8.00001C7.7434 9.16663 7.5011 9.04841 7.34317 8.84614C7.18525 8.64388 7.12932 8.38014 7.19156 8.13119L7.97467 4.99875L3.11255 10.8333Z" fill="white" fill-opacity="0.75"/>
</svg>
