<svg width="20" height="20" viewBox="0 0 20 20" fill="none" xmlns="http://www.w3.org/2000/svg">
<path d="M4.99935 16.6667L2.2188 15.2765C1.88002 15.1071 1.66602 14.7608 1.66602 14.382V11.572C1.66602 11.133 1.95234 10.7453 2.37193 10.6162L4.37435 10.0001M4.99935 16.6667L4.37435 10.0001M4.99935 16.6667L5.03728 16.8185C5.25987 17.7088 6.05983 18.3334 6.97757 18.3334H9.16602M4.37435 10.0001L4.16602 7.50008C4.16602 4.27842 6.77769 1.66675 9.99935 1.66675C13.221 1.66675 15.8327 4.27842 15.8327 7.50008L15.6243 10.0001M15.6243 10.0001L14.9993 16.6667L17.7799 15.2765C18.1187 15.1071 18.3327 14.7608 18.3327 14.382V11.572C18.3327 11.133 18.0464 10.7453 17.6268 10.6162L15.6243 10.0001Z" stroke="white" stroke-width="2" stroke-linecap="round" stroke-linejoin="round"/>
</svg>
