<svg width="20" height="20" viewBox="0 0 20 20" fill="none" xmlns="http://www.w3.org/2000/svg">
<path d="M5.00033 16.6667L2.21978 15.2765C1.88099 15.1071 1.66699 14.7608 1.66699 14.382V11.572C1.66699 11.133 1.95331 10.7453 2.37291 10.6162L4.37533 10.0001M5.00033 16.6667L4.37533 10.0001M5.00033 16.6667L5.03826 16.8185C5.26084 17.7088 6.06081 18.3334 6.97855 18.3334H9.16699M4.37533 10.0001L4.16699 7.50008C4.16699 4.27842 6.77866 1.66675 10.0003 1.66675C13.222 1.66675 15.8337 4.27842 15.8337 7.50008L15.6253 10.0001M15.6253 10.0001L15.0003 16.6667L17.7809 15.2765C18.1197 15.1071 18.3337 14.7608 18.3337 14.382V11.572C18.3337 11.133 18.0473 10.7453 17.6277 10.6162L15.6253 10.0001Z" stroke="#24A0ED" stroke-width="2" stroke-linecap="round" stroke-linejoin="round"/>
</svg>
