<svg width="20" height="20" viewBox="0 0 20 20" fill="none" xmlns="http://www.w3.org/2000/svg">
<path fill-rule="evenodd" clip-rule="evenodd" d="M12.044 0.923605C12.3905 1.09957 12.5694 1.4917 12.4751 1.86875L11.0673 7.49997H16.6667C16.9971 7.49997 17.2964 7.69525 17.4295 7.99775C17.5625 8.30024 17.5043 8.65279 17.281 8.8964L8.11431 18.8964C7.84466 19.1906 7.40431 19.2523 7.06418 19.0436C6.72405 18.8349 6.57962 18.4143 6.71974 18.0407L8.79751 12.5H3.33334C3.01 12.5 2.71584 12.3129 2.57869 12.0201C2.44154 11.7273 2.48616 11.3815 2.69316 11.1331L11.0265 1.13315C11.2753 0.83458 11.6974 0.747642 12.044 0.923605ZM5.11255 10.8333H10C10.2733 10.8333 10.5293 10.9673 10.6849 11.192C10.8406 11.4166 10.8763 11.7033 10.7803 11.9592L9.7888 14.6032L14.7723 9.16663H10C9.7434 9.16663 9.5011 9.04841 9.34317 8.84614C9.18525 8.64388 9.12932 8.38014 9.19156 8.13119L9.97467 4.99875L5.11255 10.8333Z" fill="#24A0ED"/>
</svg>
